HIERARCHY
ROOT Hips
{
	OFFSET 0.00000 0.00000 0.00000
	CHANNELS 6 Xposition Yposition Zposition Zrotation Yrotation Xrotation 
	JOINT LHipJoint
	{
		OFFSET 0 0 0
		CHANNELS 3 Zrotation Yrotation Xrotation
		JOINT LeftHip
		{
			OFFSET 1.62964 -1.40469 0.78906
			CHANNELS 3 Zrotation Yrotation Xrotation
			JOINT LeftKnee
			{
				OFFSET 2.29640 -6.30932 0.00000
				CHANNELS 3 Zrotation Yrotation Xrotation
				JOINT LeftAnkle
				{
					OFFSET 2.29451 -6.30412 0.00000
					CHANNELS 3 Zrotation Yrotation Xrotation
					JOINT LeftToe
					{
						OFFSET 0.03611 -0.09921 1.56387
						CHANNELS 3 Zrotation Yrotation Xrotation
						End Site
						{
							OFFSET 0.00000 -0.00000 0.80291
						}
					}
				}
			}
		}
	}
	JOINT RHipJoint
	{
		OFFSET 0 0 0
		CHANNELS 3 Zrotation Yrotation Xrotation
		JOINT RightHip
		{
			OFFSET -1.73712 -1.40469 0.78906
			CHANNELS 3 Zrotation Yrotation Xrotation
			JOINT RightKnee
			{
				OFFSET -2.28137 -6.26801 0.00000
				CHANNELS 3 Zrotation Yrotation Xrotation
				JOINT RightAnkle
				{
					OFFSET -2.28681 -6.28298 0.00000
					CHANNELS 3 Zrotation Yrotation Xrotation
					JOINT RightToe
					{
						OFFSET -0.15927 -0.43759 1.61103
						CHANNELS 3 Zrotation Yrotation Xrotation
						End Site
						{
							OFFSET -0.00000 -0.00000 0.84630
						}
					}
				}
			}
		}
	}
	JOINT lowerback
	{
		OFFSET 0 0 0
		CHANNELS 3 Zrotation Yrotation Xrotation
		JOINT Chest
		{
			OFFSET -0.04227 2.04338 -0.00225
			CHANNELS 3 Zrotation Yrotation Xrotation
			JOINT Chest2
			{
				OFFSET -0.02148 2.04482 -0.04273
				CHANNELS 3 Zrotation Yrotation Xrotation
				JOINT lowerneck
				{
					OFFSET 0 0 0
					CHANNELS 3 Zrotation Yrotation Xrotation
					JOINT Neck
					{
						OFFSET 0.09180 1.44629 0.19359
						CHANNELS 3 Zrotation Yrotation Xrotation
						JOINT Head
						{
							OFFSET 0.00887 1.40645 0.14750
							CHANNELS 3 Zrotation Yrotation Xrotation
							End Site
							{
								OFFSET -0.00669 1.50671 0.03707
							}
						}
					}
				}
				JOINT LeftCollar
				{
					OFFSET 0 0 0
					CHANNELS 3 Zrotation Yrotation Xrotation
					JOINT LeftShoulder
					{
						OFFSET 2.17674 1.86763 -0.06520
CHANNELS 3 Zrotation Xrotation Yrotation
						JOINT LeftElbow
						{
OFFSET 0 -4.657760 0.000000
CHANNELS 3 Zrotation Xrotation Yrotation
							JOINT LeftWrist
							{
OFFSET 0 -3.555390 0.000000
CHANNELS 3 Zrotation Xrotation Yrotation
								JOINT lhand
								{
									OFFSET 0 0 0
CHANNELS 3 Zrotation Xrotation Yrotation
									JOINT LFingers
									{
OFFSET 0 -0.707260 0.000000
CHANNELS 3 Zrotation Xrotation Yrotation
										End Site
										{
OFFSET 0 -0.570220 0.000000
										}
									}
								}
								JOINT LThumb
								{
OFFSET 0 0.000000 0.000000
CHANNELS 3 Zrotation Xrotation Yrotation
									End Site
									{
OFFSET 0 -0.578920 0.578920
									}
								}
							}
						}
					}
				}
				JOINT RightCollar
				{
					OFFSET 0 0 0
					CHANNELS 3 Zrotation Yrotation Xrotation
					JOINT RightShoulder
					{
						OFFSET -2.80694 1.55459 -0.32496
CHANNELS 3 Zrotation Xrotation Yrotation
						JOINT RightElbow
						{
OFFSET 0 -4.719250 -0.000000
CHANNELS 3 Zrotation Xrotation Yrotation
							JOINT RightWrist
							{
OFFSET 0 -3.569900 0.000000
CHANNELS 3 Zrotation Xrotation Yrotation
								JOINT rhand
								{
									OFFSET 0 0 0
CHANNELS 3 Zrotation Xrotation Yrotation
									JOINT RFingers
									{
OFFSET 0 -0.507760 0.000000
CHANNELS 3 Zrotation Xrotation Yrotation
										End Site
										{
OFFSET 0 -0.409370 0.000000
										}
									}
								}
								JOINT RThumb
								{
OFFSET 0 0.000000 0.000000
CHANNELS 3 Zrotation Xrotation Yrotation
									End Site
									{
OFFSET 0 -0.415620 0.415620
									}
								}
							}
						}
					}
				}
			}
		}
	}
}
MOTION
Frames: 10
Frame Time: 0.008333333333333333
9.077955 15.428609 11.005415 -181.976063 5.477824 -134.387723 0.000000 0.000000 0.000000 -2.655696 -23.657187 -70.538826 6.577440 14.965089 47.256712 1.102993 -6.461721 -18.751290 4.668925 -13.000964 -39.372054 0.000000 0.000000 0.000000 1.076236 24.313895 -69.668382 -6.324573 -14.735266 46.270131 -3.014712 -6.396096 -35.487680 -3.384219 11.292478 -33.272737 -4.399829 -2.116011 -13.243798 -0.077660 -1.947356 -1.904592 2.062941 -0.946460 5.566174 14.373234 -8.226693 31.068730 -8.751768 -5.726099 -43.645898 -7.418539 -2.342588 -28.377337 0.000000 0.000000 0.000000 40.599482 34.770356 -52.560014 35.330717 -45.046629 15.046968 30.359037 -21.842395 18.811679 0.000000 0.000000 0.000000 -7.125000 0.000000 0.000000 1.392535 8.441243 1.173413 0.000000 0.000000 0.000000 -13.386750 37.771289 27.472276 -41.693859 -49.041846 -19.709081 -10.989208 -2.251308 43.690210 0.000000 0.000000 0.000000 7.125000 0.000000 0.000000 40.549967 70.378344 -25.938791
9.077722 15.296664 11.016127 -181.786129 5.850371 -134.463097 0.000000 0.000000 0.000000 -2.683238 -23.122257 -71.655985 7.105048 15.418812 49.269073 1.167870 -7.013064 -19.301183 4.498679 -12.795790 -38.609131 0.000000 0.000000 0.000000 0.935815 24.641154 -70.744071 -6.796460 -15.157247 48.098773 -3.147926 -6.159504 -36.069803 -3.337077 11.221670 -33.031036 -4.363859 -1.960123 -12.677138 -0.104736 -1.801850 -1.624706 2.048241 -0.893613 5.535383 14.324935 -8.214955 30.986407 -8.740908 -5.684727 -43.845820 -7.482819 -2.316193 -28.615683 0.000000 0.000000 0.000000 40.735852 35.487938 -52.414903 36.207872 -45.655054 15.671123 30.463552 -22.263554 19.433965 0.000000 0.000000 0.000000 -7.125000 0.000000 0.000000 1.375820 7.724344 1.178747 0.000000 0.000000 0.000000 -13.184423 37.790822 27.241186 -42.595706 -49.534303 -20.392851 -10.696738 -2.813383 43.763590 0.000000 0.000000 0.000000 7.125000 0.000000 0.000000 40.995719 70.332558 -26.215196
9.076065 15.161047 11.021059 -181.656937 6.179691 -134.794945 0.000000 0.000000 0.000000 -2.802891 -22.706150 -72.474234 7.657858 15.860283 51.318424 1.236626 -7.591760 -19.874802 4.196557 -12.416550 -37.223282 0.000000 0.000000 0.000000 0.724141 25.033725 -71.462395 -7.290931 -15.570819 49.963880 -3.324340 -5.630189 -36.729744 -3.076740 10.817083 -31.666699 -4.349430 -1.826943 -11.924241 -0.110850 -1.694308 -1.334574 2.063547 -0.858805 5.414756 13.977210 -8.255613 31.296166 -7.840376 -5.323142 -44.461830 -7.075504 -2.245133 -29.392126 0.000000 0.000000 0.000000 40.787992 36.384033 -52.220731 37.185615 -46.310087 16.374403 30.517107 -22.335752 19.832736 0.000000 0.000000 0.000000 -7.125000 0.000000 0.000000 1.355283 7.267843 1.173288 0.000000 0.000000 0.000000 -13.039824 37.941985 27.012007 -43.710225 -50.119569 -21.244631 -10.395966 -3.468984 43.521829 0.000000 0.000000 0.000000 7.125000 0.000000 0.000000 40.809033 70.060743 -25.849974
9.086793 15.015465 11.090083 -181.855020 6.188229 -133.520821 0.000000 0.000000 0.000000 -2.138466 -22.579009 -75.860551 8.421108 16.416893 54.060035 1.296533 -8.066356 -20.366023 4.299896 -12.548810 -37.702671 0.000000 0.000000 0.000000 -0.729429 25.193939 -74.833360 -8.011397 -16.124270 52.598176 -3.483708 -5.380455 -37.419239 -2.801029 10.364142 -30.165767 -4.636302 -2.026076 -12.110221 -0.017619 -1.896760 -1.675002 2.290645 -0.942658 5.186667 13.689317 -8.239147 31.609131 -7.492047 -5.159132 -44.817812 -6.952071 -2.188863 -30.018489 0.000000 0.000000 0.000000 40.860822 37.288620 -52.094550 38.122792 -46.916325 17.055577 30.564950 -22.228183 20.006305 0.000000 0.000000 0.000000 -7.125000 0.000000 0.000000 1.361492 7.064158 1.184029 0.000000 0.000000 0.000000 -12.993023 38.054280 26.984274 -44.748934 -50.643696 -22.044790 -10.255318 -3.990123 43.041305 0.000000 0.000000 0.000000 7.125000 0.000000 0.000000 40.006143 69.669146 -24.956579
9.092323 14.871192 11.128247 -181.857619 6.410443 -133.156047 0.000000 0.000000 0.000000 -1.982189 -22.207068 -77.771505 9.058454 16.842800 56.288438 1.388958 -7.950237 -21.079231 4.901053 -13.265202 -40.380545 0.000000 0.000000 0.000000 -1.573020 25.532200 -76.828229 -8.651602 -16.575559 54.873104 -3.615051 -5.251300 -38.011600 -2.586988 9.993033 -28.955402 -4.800169 -2.070238 -11.617348 -0.006471 -1.972340 -1.644993 2.393349 -0.983881 4.956136 13.489896 -8.182845 31.704941 -7.111779 -4.846477 -45.212636 -6.872721 -2.095957 -30.569450 0.000000 0.000000 0.000000 40.824740 38.019400 -51.758416 38.986933 -47.456851 17.689506 30.945674 -22.588144 20.387435 0.000000 0.000000 0.000000 -7.125000 0.000000 0.000000 1.547591 6.558163 1.361576 0.000000 0.000000 0.000000 -12.905629 37.856163 27.002432 -45.637302 -51.075889 -22.733755 -10.314760 -4.164127 42.880444 0.000000 0.000000 0.000000 7.125000 0.000000 0.000000 39.633805 69.572245 -24.616977
9.097808 14.722571 11.161889 -181.848808 6.655796 -132.865843 0.000000 0.000000 0.000000 -1.848986 -21.835315 -79.607458 9.733350 17.253882 58.588686 1.488692 -8.077712 -21.831654 5.183301 -13.586677 -41.607486 0.000000 0.000000 0.000000 -2.428527 25.910489 -78.737855 -9.310036 -16.999901 57.151431 -3.734734 -5.235969 -38.586525 -2.433876 9.715822 -28.061981 -4.930892 -2.086366 -11.091895 -0.008516 -2.018446 -1.589118 2.469424 -1.010886 4.730947 13.271069 -8.125617 31.772358 -6.418690 -4.321392 -45.727402 -6.657986 -1.961615 -31.228519 0.000000 0.000000 0.000000 40.587852 38.763116 -51.167923 39.880245 -47.997192 18.350670 31.494209 -23.051324 20.806667 0.000000 0.000000 0.000000 -7.125000 0.000000 0.000000 1.830382 5.969777 1.631570 0.000000 0.000000 0.000000 -12.715656 37.627927 26.819948 -46.600914 -51.527567 -23.486001 -10.413191 -4.173230 42.736375 0.000000 0.000000 0.000000 7.125000 0.000000 0.000000 39.259073 69.499222 -24.298434
9.102578 14.565286 11.194579 -181.836581 6.821704 -132.439397 0.000000 0.000000 0.000000 -1.529960 -21.561346 -81.666328 10.470300 17.661884 61.043468 1.582630 -8.603219 -22.528502 4.967987 -13.345869 -40.680602 0.000000 0.000000 0.000000 -3.321837 26.214241 -80.844167 -10.013852 -17.413714 59.529230 -3.923173 -4.788713 -39.301779 -2.246722 9.360118 -26.930018 -4.962315 -2.102894 -10.701166 0.002443 -2.066725 -1.584529 2.501111 -1.034266 4.523957 12.917542 -8.070788 31.962096 -5.814982 -3.948327 -46.084696 -6.423458 -1.845115 -31.968711 0.000000 0.000000 0.000000 40.200266 39.451480 -50.304900 40.754214 -48.508815 19.002753 32.101131 -23.347630 21.249223 0.000000 0.000000 0.000000 -7.125000 0.000000 0.000000 2.141483 5.336472 1.935163 0.000000 0.000000 0.000000 -12.392314 37.322730 26.438831 -47.509851 -51.939094 -24.199653 -10.361827 -4.243967 42.357614 0.000000 0.000000 0.000000 7.125000 0.000000 0.000000 38.606681 69.203362 -23.609284
9.105801 14.405164 11.212599 -181.743157 7.013142 -132.299192 0.000000 0.000000 0.000000 -1.312950 -21.231944 -83.260413 11.190476 18.023317 63.393989 1.681722 -9.133383 -23.243876 4.689763 -13.024282 -39.461650 0.000000 0.000000 0.000000 -3.935469 26.569534 -82.486145 -10.694211 -17.778636 61.779966 -4.128610 -4.199030 -40.032792 -2.099225 9.068770 -26.011415 -4.917329 -2.067657 -10.171914 -0.003854 -2.069336 -1.445494 2.480161 -1.042074 4.373161 13.368601 -7.355003 30.289287 -8.180473 -3.206894 -46.634598 -8.877449 -1.425851 -32.273421 0.000000 0.000000 0.000000 39.809664 39.961767 -49.340401 41.670211 -49.026881 19.691780 32.734533 -23.800662 21.729119 0.000000 0.000000 0.000000 -7.125000 0.000000 0.000000 2.457584 4.648303 2.253334 0.000000 0.000000 0.000000 -11.976845 36.780050 26.001318 -48.200427 -52.242683 -24.744300 -10.519438 -4.171461 41.715900 0.000000 0.000000 0.000000 7.125000 0.000000 0.000000 37.292299 68.772195 -22.380890
9.111277 14.245398 11.233251 -181.648472 7.227508 -131.967104 0.000000 0.000000 0.000000 -1.073863 -20.835916 -85.074409 11.939861 18.360727 65.793261 1.788354 -9.646762 -23.992840 4.406155 -12.680090 -38.185589 0.000000 0.000000 0.000000 -4.677951 26.920767 -84.381677 -11.360672 -18.103584 63.943185 -4.271320 -4.032564 -40.627108 -2.079027 9.028772 -25.885287 -4.951974 -2.072440 -9.848466 -0.000103 -2.099196 -1.351694 2.506204 -1.062365 4.294938 15.007526 -7.203071 28.865488 -10.770652 -3.000108 -46.647912 -11.516548 -1.493943 -32.379866 0.000000 0.000000 0.000000 39.398137 40.403873 -48.352459 42.770498 -49.625060 20.526657 33.315750 -24.404632 22.136722 0.000000 0.000000 0.000000 -7.125000 0.000000 0.000000 2.748322 4.047612 2.551131 0.000000 0.000000 0.000000 -11.559604 36.048197 25.616870 -48.730329 -52.469962 -25.163789 -10.990371 -3.941962 40.957753 0.000000 0.000000 0.000000 7.125000 0.000000 0.000000 35.501206 68.338687 -20.870898
9.117111 14.086141 11.248648 -181.530499 7.471189 -131.695992 0.000000 0.000000 0.000000 -0.899434 -20.405470 -86.649581 12.645904 18.647102 68.018513 1.898345 -10.068684 -24.741203 4.133754 -12.334358 -36.928164 0.000000 0.000000 0.000000 -5.348273 27.277501 -86.102168 -11.987656 -18.382470 65.946419 -4.398894 -3.951747 -41.176623 -2.095720 9.062635 -25.991444 -4.981690 -2.078665 -9.504730 -0.011415 -2.131524 -1.241923 2.513906 -1.084026 4.221197 15.964963 -7.153926 28.043410 -11.818187 -2.766933 -46.693076 -12.704531 -1.534163 -32.293830 0.000000 0.000000 0.000000 38.803643 40.840142 -47.132633 43.971155 -50.250864 21.445757 33.898645 -24.962105 22.543275 0.000000 0.000000 0.000000 -7.125000 0.000000 0.000000 3.035372 3.441497 2.852622 0.000000 0.000000 0.000000 -11.104057 35.136086 25.257271 -49.096289 -52.624264 -25.454239 -11.261027 -3.884771 40.248213 0.000000 0.000000 0.000000 7.125000 0.000000 0.000000 34.060577 67.866672 -19.592790
